<svg width="420" height="120" viewBox="0 0 420 120" fill="none" xmlns="http://www.w3.org/2000/svg" role="img" aria-label="KMG LLC logo">
  <rect width="420" height="120" rx="28" fill="#06111F"/>
  <path d="M34 78V34H46.7V51.1L62.2 34H77.7L59.5 53.1L79.2 78H63.5L51.6 62.2L46.7 67.2V78H34Z" fill="#F8FAFC"/>
  <path d="M84.3 78V34H97.5L110.5 55.4L123.4 34H136.6V78H124.6V54.6L115.1 70H105.8L96.2 54.6V78H84.3Z" fill="#3B82F6"/>
  <path d="M165.7 79C151.7 79 141.5 69.3 141.5 56.1C141.5 42.8 151.8 33 165.5 33C175.2 33 183.1 37.8 187.1 45.7L176.3 51.7C174.2 47.5 170.6 45.2 165.7 45.2C159 45.2 154.5 49.8 154.5 56.1C154.5 62.5 159 67 166 67C170.9 67 174.3 65.1 176 61.8H163.4V52.2H189.2V57C189.2 70.1 179.8 79 165.7 79Z" fill="#F8FAFC"/>
  <path d="M204 78V34H217V66.8H238V78H204Z" fill="#F8FAFC"/>
  <path d="M244.1 78V34H257.1V66.8H278.1V78H244.1Z" fill="#F8FAFC"/>
  <path d="M307.9 79C294.2 79 284 69.2 284 56C284 42.8 294.2 33 307.9 33C318 33 326 38.1 329.7 46.8L318.4 52.3C316.6 47.9 312.7 45.3 307.9 45.3C301.6 45.3 297 49.9 297 56C297 62.2 301.6 66.7 307.9 66.7C312.8 66.7 316.7 64.1 318.4 59.7L329.7 65.2C326 73.9 318 79 307.9 79Z" fill="#F8FAFC"/>
  <path d="M34 92H330" stroke="#F97316" stroke-width="6" stroke-linecap="round"/>
  <path d="M352 35H386C391.5 35 396 39.5 396 45V75C396 80.5 391.5 85 386 85H352C346.5 85 342 80.5 342 75V45C342 39.5 346.5 35 352 35Z" fill="#0F172A" stroke="#3B82F6" stroke-width="3"/>
  <path d="M354 68H384" stroke="#F8FAFC" stroke-width="5" stroke-linecap="round"/>
  <path d="M385 68H397" stroke="#F97316" stroke-width="5" stroke-linecap="round"/>
  <circle cx="359" cy="84" r="7" fill="#F97316"/>
  <circle cx="384" cy="84" r="7" fill="#F97316"/>
  <path d="M350 100H397" stroke="#F8FAFC" stroke-width="4" stroke-linecap="round"/>
</svg>
