<?xml version="1.0" encoding="UTF-8"?>
<svg id="_Слой_1" data-name="Слой_1" xmlns="http://www.w3.org/2000/svg" xmlns:xlink="http://www.w3.org/1999/xlink" version="1.1" viewBox="0 0 2400 749.96">
  <!-- Generator: Adobe Illustrator 30.3.0, SVG Export Plug-In . SVG Version: 2.1.3 Build 182)  -->
  <defs>
    <style>
      .st0 {
        fill: url(#_Безымянный_градиент_201);
      }

      .st1 {
        fill: #00a2ff;
      }

      .st2 {
        fill: url(#_Безымянный_градиент_20);
      }

      .st3 {
        fill: url(#_Безымянный_градиент_11);
      }
    </style>
    <linearGradient id="_Безымянный_градиент_20" data-name="Безымянный градиент 20" x1="190.1" y1="504.82" x2="750" y2="504.82" gradientUnits="userSpaceOnUse">
      <stop offset="0" stop-color="#04044a"/>
      <stop offset=".03" stop-color="#031058"/>
      <stop offset=".15" stop-color="#023784"/>
      <stop offset=".27" stop-color="#0158aa"/>
      <stop offset=".39" stop-color="#0172c9"/>
      <stop offset=".52" stop-color="#0087e0"/>
      <stop offset=".66" stop-color="#0096f1"/>
      <stop offset=".81" stop-color="#009ffb"/>
      <stop offset="1" stop-color="#00a2ff"/>
    </linearGradient>
    <linearGradient id="_Безымянный_градиент_11" data-name="Безымянный градиент 11" x1="67.71" y1="234.92" x2="731.91" y2="234.92" gradientUnits="userSpaceOnUse">
      <stop offset="0" stop-color="#00a2ff"/>
      <stop offset=".19" stop-color="#009ffb"/>
      <stop offset=".34" stop-color="#0096f1"/>
      <stop offset=".48" stop-color="#0087e0"/>
      <stop offset=".61" stop-color="#0172c9"/>
      <stop offset=".73" stop-color="#0158aa"/>
      <stop offset=".85" stop-color="#023784"/>
      <stop offset=".97" stop-color="#031058"/>
      <stop offset="1" stop-color="#04044a"/>
    </linearGradient>
    <linearGradient id="_Безымянный_градиент_201" data-name="Безымянный градиент 20" x1="179.38" y1="134.7" x2="210.29" y2="721.89" xlink:href="#_Безымянный_градиент_20"/>
  </defs>
  <g>
    <g>
      <path d="M1340.03,509.28h-151.44l-167.15-226.44v226.44h-121.44V9.25h121.44v212.87L1177.87,9.25h149.3l-180.01,241.44,192.87,258.58Z"/>
      <path d="M1718.69,9.25h137.86v500.03h-121.44V179.26l-125,190.73h-11.43l-125-190.73v330.02h-121.44V9.25h137.86l114.29,171.44,114.29-171.44Z"/>
      <path d="M2122.13,232.83h277.87v276.44h-103.58v-70c-11.43,23.34-31.07,42.39-58.93,57.14-27.86,14.76-60.61,22.15-98.22,22.15-69.54,0-128.11-24.4-175.72-73.22-47.63-48.81-71.43-110.36-71.43-184.65s24.52-137.5,73.58-186.8C2014.73,24.61,2076.65-.04,2151.41-.04c60.47,0,112.74,16.55,156.79,49.65,44.05,33.1,72.97,76.32,86.79,129.65h-130.01c-10-20-24.89-35.59-44.64-46.79-19.77-11.18-42.75-16.79-68.93-16.79-41.43,0-74.53,13.34-99.29,40-24.76,26.68-37.14,62.15-37.14,106.44,0,41.91,11.54,76.43,34.64,103.58,23.09,27.14,56.08,40.72,98.94,40.72,28.09,0,52.97-6.19,74.64-18.58,21.66-12.38,37.5-30.24,47.5-53.57h-148.58v-101.43Z"/>
    </g>
    <g>
      <path class="st1" d="M1023.79,747.69l-2.27-15.9h-1.14c-2.88,3.33-6.36,6.36-10.45,9.08-9.39,6.06-20.29,9.09-32.71,9.09-21.8,0-40.13-7.72-54.97-23.17-14.84-15.45-22.26-34.98-22.26-58.6s7.42-43.15,22.26-58.6c14.84-15.45,33.16-23.17,54.97-23.17,24.08,0,43.53,9.47,58.37,28.39,6.21,8.48,10.98,17.94,14.31,28.39h-37.48c-2.27-4.24-4.85-7.8-7.72-10.67-7.27-7.27-16.43-10.9-27.48-10.9-11.66,0-21.39,4.32-29.19,12.95-7.8,8.63-11.7,19.84-11.7,33.62s3.9,25.18,11.7,33.73c7.8,8.56,17.53,12.83,29.19,12.83,13.32,0,23.54-4.32,30.66-12.95,3.18-3.78,5.45-8.18,6.81-13.18h-35.21v-24.98h71.55v84.04h-27.26Z"/>
      <path class="st1" d="M1109.65,747.69v-159h74.95c15.45,0,28.01,5,37.7,14.99,9.69,9.99,14.54,23.17,14.54,39.52,0,20.14-7.42,34.75-22.26,43.84-6.81,3.94-14.16,6.36-22.03,7.27l48.83,53.38h-45.43l-45.43-51.11h-4.54v51.11h-36.34ZM1145.99,663.65h36.34c5.3,0,9.65-1.85,13.06-5.57,3.41-3.71,5.11-8.67,5.11-14.88s-1.7-11.16-5.11-14.88c-3.41-3.71-7.76-5.57-13.06-5.57h-36.34v40.89Z"/>
      <path class="st1" d="M1419.69,726.79c-14.84,15.45-33.16,23.17-54.97,23.17s-40.13-7.72-54.97-23.17c-14.84-15.45-22.26-34.98-22.26-58.6s7.42-43.15,22.26-58.6c14.84-15.45,33.16-23.17,54.97-23.17s40.13,7.72,54.97,23.17c14.84,15.45,22.26,34.98,22.26,58.6s-7.42,43.15-22.26,58.6ZM1335.53,701.92c7.8,8.56,17.53,12.83,29.19,12.83s21.39-4.28,29.19-12.83c7.8-8.55,11.7-19.8,11.7-33.73s-3.9-25.17-11.7-33.73c-7.8-8.55-17.53-12.83-29.19-12.83s-21.39,4.28-29.19,12.83c-7.8,8.56-11.7,19.8-11.7,33.73s3.9,25.18,11.7,33.73Z"/>
      <path class="st1" d="M1496,681.82v-93.13h36.34v93.13c0,9.54,2.95,17.41,8.86,23.62,5.91,6.21,13.17,9.31,21.8,9.31s15.9-3.1,21.81-9.31c5.91-6.21,8.86-14.08,8.86-23.62v-93.13h36.34v93.13c0,20.89-6.06,37.48-18.17,49.74-12.12,12.26-28.39,18.4-48.83,18.4s-36.72-6.13-48.83-18.4c-12.12-12.27-18.17-28.85-18.17-49.74Z"/>
      <path class="st1" d="M1690.88,747.69v-159h73.82c15.44,0,28.01,5.07,37.7,15.22,9.69,10.15,14.54,23.62,14.54,40.43s-4.85,30.29-14.54,40.43c-9.69,10.15-22.26,15.22-37.7,15.22h-37.48v47.7h-36.34ZM1727.22,664.78h35.21c5.3,0,9.65-1.85,13.06-5.57,3.41-3.71,5.11-8.67,5.11-14.88s-1.7-11.16-5.11-14.88c-3.41-3.71-7.76-5.57-13.06-5.57h-35.21v40.89Z"/>
      <path class="st1" d="M1951.18,747.69v-159h36.34v123.79h71.55v35.21h-107.89Z"/>
      <path class="st1" d="M2108.58,747.69v-159h36.34v123.79h71.55v35.21h-107.89Z"/>
      <path class="st1" d="M2363.66,687.5h36.34c-2.42,11.66-6.74,22.11-12.95,31.34-13.48,20.75-33.39,31.12-59.74,31.12-21.8,0-40.13-7.72-54.97-23.17-14.84-15.45-22.26-34.98-22.26-58.6s7.42-43.15,22.26-58.6c14.84-15.45,33.16-23.17,54.97-23.17,25.74,0,45.5,10.22,59.28,30.66,5.91,8.78,10.37,19,13.4,30.66h-36.34c-1.67-5-4.01-9.31-7.04-12.95-7.27-8.78-17.04-13.17-29.3-13.17s-21.39,4.28-29.19,12.83c-7.8,8.56-11.7,19.8-11.7,33.73s3.9,25.18,11.7,33.73c7.8,8.56,17.53,12.83,29.19,12.83,13.02,0,22.94-4.54,29.75-13.63,3.03-3.94,5.22-8.48,6.59-13.63Z"/>
    </g>
  </g>
  <g>
    <path class="st2" d="M731.91,259.65c11.74,36.35,18.09,75.08,18.09,115.34,0,166.2-108.09,307.09-257.8,356.29-36.84,12.16-76.28,18.71-117.2,18.71s-80.36-6.55-117.24-18.71c-42.65-60.87-67.66-134.96-67.66-214.9,0-16.11,1.03-31.98,2.97-47.55,54.11,30.29,116.5,47.55,182.88,47.55s127.38-16.85,181.03-46.52c81.88-45.21,145.01-120.12,174.93-210.21Z"/>
    <path class="st3" d="M682.3,160.09c21.22,30.21,38.04,63.71,49.62,99.56-29.92,90.08-93.05,165-174.93,210.21-14.59-118.02-83.98-219.02-181.98-276.8-55.76-32.84-120.74-51.68-190.14-51.68-40.92,0-80.32,6.55-117.16,18.71C135.46,63.29,247.83,0,375,0s239.51,63.3,307.29,160.1Z"/>
    <path class="st0" d="M184.87,141.38c69.4,0,134.38,18.83,190.14,51.68-97.71,57.57-167.02,158.2-181.94,275.77-1.94,15.58-2.97,31.44-2.97,47.55,0,79.95,25.01,154.04,67.66,214.9C108.05,682.08,0,541.15,0,374.99,0,333.66,6.68,293.89,19.04,256.72c11.54-34.74,28.02-67.25,48.67-96.63,36.84-12.16,76.24-18.71,117.16-18.71Z"/>
  </g>
</svg>